<svg width="192" height="92" viewBox="0 0 192 92" fill="none" xmlns="http://www.w3.org/2000/svg">
<rect width="192" height="92" fill="#1E1E1E"/>
<g clip-path="url(#clip0_0_1)">
<path d="M31.3357 77.96C30.1197 77.96 29.2877 77.608 28.8397 76.904C28.3917 76.2 28.1677 75.432 28.1677 74.6C28.1677 70.632 28.5517 66.088 29.3197 60.968C30.1517 55.848 31.1437 50.76 32.2957 45.704C33.3197 41.416 34.4397 37.416 35.6557 33.704C36.9357 29.992 38.0557 26.952 39.0157 24.584C40.4237 21.256 42.0237 18.728 43.8158 17C45.6718 15.208 47.8158 14.312 50.2478 14.312C52.0398 14.312 53.6397 14.92 55.0477 16.136C56.4557 17.288 57.2878 19.4 57.5438 22.472C57.9277 26.184 58.3757 29.928 58.8878 33.704C59.3997 37.48 59.9757 40.936 60.6158 44.072C61.2558 47.144 61.9278 49.512 62.6318 51.176C63.2078 52.648 64.0398 53.384 65.1278 53.384C66.3438 53.384 67.3997 52.616 68.2957 51.08C69.1278 49.672 70.0238 47.752 70.9837 45.32C71.9437 42.888 72.8717 40.328 73.7678 37.64C74.7278 34.888 75.5598 32.392 76.2638 30.152C77.0958 27.72 78.0238 25.288 79.0477 22.856C80.1357 20.36 81.5118 18.312 83.1758 16.712C84.8398 15.048 86.9198 14.216 89.4158 14.216C91.7198 14.216 93.3518 15.016 94.3118 16.616C95.3358 18.152 95.8477 20.616 95.8477 24.008C95.8477 26.632 95.7518 29.384 95.5598 32.264C95.4958 33.928 95.3998 35.656 95.2718 37.448C95.2078 39.176 95.1758 40.968 95.1758 42.824C95.1758 45.704 95.3038 48.744 95.5598 51.944C95.8798 55.144 96.4558 58.152 97.2878 60.968C98.1838 63.784 99.4958 66.152 101.224 68.072C101.736 68.52 102.184 69.032 102.568 69.608C103.016 70.184 103.24 70.824 103.24 71.528C103.24 73.128 102.376 74.6 100.648 75.944C98.9838 77.224 97.0638 77.864 94.8878 77.864C92.9037 77.864 91.4317 77.224 90.4718 75.944C89.5118 74.664 88.7438 72.936 88.1678 70.76C87.5278 68.072 87.0798 65.192 86.8238 62.12C86.5678 59.048 86.4398 56.072 86.4398 53.192C86.4398 48.584 86.5998 44.36 86.9198 40.52C87.3038 36.616 87.4958 33.736 87.4958 31.88C87.4958 30.856 87.3998 30.12 87.2078 29.672C87.0158 29.16 86.5358 28.904 85.7678 28.904C84.8718 28.904 84.1038 29.32 83.4637 30.152C82.8877 30.92 82.4077 32.008 82.0238 33.416C81.1917 36.104 80.2638 38.984 79.2398 42.056C78.2157 45.128 77.1278 48.136 75.9758 51.08C74.8878 54.024 73.7038 56.648 72.4237 58.952C70.9517 61.64 69.3518 63.464 67.6237 64.424C65.9598 65.32 64.2638 65.768 62.5357 65.768C59.8477 65.768 57.7998 64.936 56.3918 63.272C55.0477 61.544 54.0557 59.656 53.4157 57.608C52.5837 54.856 51.8157 51.272 51.1118 46.856C50.4078 42.376 49.8958 37.352 49.5758 31.784C49.4478 29.416 48.6797 28.232 47.2717 28.232C45.7357 28.232 44.5197 29.384 43.6237 31.688C42.8557 33.992 42.1197 36.712 41.4157 39.848C40.7117 42.92 40.1357 46.152 39.6877 49.544C39.3037 52.872 39.1117 56.168 39.1117 59.432C39.1117 62.184 39.2077 64.584 39.3997 66.632C39.6557 68.68 39.7837 70.6 39.7837 72.392C39.7837 73.672 39.2717 74.728 38.2477 75.56C37.2877 76.392 36.1357 77 34.7917 77.384C33.4477 77.768 32.2957 77.96 31.3357 77.96ZM159.932 78.056C157.948 78.056 156.252 77.224 154.844 75.56C153.5 73.832 152.188 71.016 150.908 67.112C150.268 65.192 149.724 63.336 149.276 61.544C148.892 59.688 148.604 57.896 148.412 56.168C147.58 57.448 146.812 58.312 146.108 58.76C145.468 59.144 144.508 59.336 143.228 59.336C140.092 59.336 136.764 59.304 133.244 59.24C129.724 59.112 126.588 59.016 123.836 58.952C123.708 60.104 123.58 61.288 123.452 62.504C123.388 63.656 123.356 64.808 123.356 65.96C123.356 66.984 123.388 68.008 123.452 69.032C123.58 70.056 123.676 71.048 123.74 72.008C123.932 73.8 123.228 75.24 121.628 76.328C120.028 77.416 118.044 77.96 115.676 77.96C113.628 77.96 112.604 77.064 112.604 75.272C112.604 74.184 112.892 72.552 113.468 70.376C113.788 68.904 114.044 67.656 114.236 66.632C114.428 65.544 114.524 64.68 114.524 64.04C114.524 62.248 113.98 61.032 112.892 60.392C111.996 59.88 111.548 59.208 111.548 58.376C111.548 57.608 111.708 56.68 112.028 55.592C112.412 54.504 112.892 53.512 113.468 52.616C114.044 51.656 114.588 50.984 115.1 50.6C115.548 50.344 116.092 50.12 116.732 49.928C117.372 49.736 118.172 49.608 119.132 49.544C121.628 42.376 124.412 36.2 127.484 31.016C130.62 25.768 133.948 21.736 137.468 18.92C140.988 16.04 144.572 14.6 148.22 14.6C150.46 14.6 152.092 15.368 153.116 16.904C154.14 18.376 154.652 20.872 154.652 24.392V28.712C154.652 35.176 155.132 41.128 156.092 46.568C157.052 52.008 158.236 56.424 159.644 59.816C161.052 63.4 163.004 66.344 165.5 68.648C166.268 69.288 166.78 69.864 167.036 70.376C167.292 70.824 167.42 71.304 167.42 71.816C167.42 72.776 167.036 73.736 166.268 74.696C165.564 75.656 164.636 76.456 163.484 77.096C162.332 77.736 161.148 78.056 159.932 78.056ZM126.716 48.968C129.852 48.84 132.604 48.744 134.972 48.68C137.34 48.552 139.324 48.488 140.924 48.488H147.644C147.516 46.696 147.388 44.808 147.26 42.824C147.196 40.84 147.164 38.76 147.164 36.584V31.016C147.164 29.16 146.94 27.944 146.492 27.368C146.108 26.728 145.34 26.408 144.188 26.408C141.052 26.408 137.916 28.456 134.78 32.552C131.644 36.648 128.956 42.12 126.716 48.968Z" fill="#18DCC7"/>
</g>
<defs>
<clipPath id="clip0_0_1">
<rect width="192" height="92" fill="white"/>
</clipPath>
</defs>
</svg>
